<?xml version="1.0" encoding="UTF-8"?>
<svg version="1.1" viewBox="0 0 2048 725" width="2549" height="903" xmlns="http://www.w3.org/2000/svg">
<path transform="translate(1012,33)" d="m0 0h3l17 36 5 11v2l-22 11-20 12-17 12-11 9-14 12-17 17 2 4 13 12 6 5 3 1 2-4 14-14 22-18 13-9 20-12 18-9h2l18 39 4 9v2l-16 8-17 10-12 9-11 9-13 12-3 4 1 3 11 9 8 7-1 4-8 9-9 13-3 5h7l-2 18-5 36-1 2h-23l-2 16-1 16 12 7 9 10 5 11 2 10v15l-2 10-4 10-7 9-1 4 11 22 5 8v2l-22 14h-2l5 9 13 16 12 13 11 10 13 10 7 5-2 4-12 18-15 22h-4l-14-10-14-12-13-12-13-14-11-14-10-14-12 7-14 9 4 7 12 16 11 13 9 10 14 14 11 9 15 12 9 6-2 5-17 25-11 16-11-7-14-11-13-11-12-11-17-17-9-11-9-10-13-18-4-6-5 2-22 14-1 2h-830v-528h304l1 2-1 205-1 24-4-5-6-10-9-10-9-6-12-4-5-1h-56l-15 3-16 7-11 8-8 7-9 12-7 15-4 15v73l4 15 8 16 6 8 7 8 11 8 16 8 18 4h81l18-3 14-5 13-7 5-3 7 7 13 8 7 3v-40l1-361 1-1h556l-5 5-10 9-8 7-15 14-11 12 12 12 8 7 4 2 25-25 11-9 9-8 18-13 17-11 21-12zm-530 212-15 3-13 5-14 9-12 11-10 15-6 15-3 17v59l2 14 6 16 7 12 11 12 11 9 17 8 10 3 7 1h84l20-4 16-7 10-6 4 2 10 8 12 6h3l1-62v-142h-57l-2 32-8-14-9-10-11-7-12-4-6-1zm215 92v51h53v-51z" fill="#FEFE00"/>
<path transform="translate(1156,212)" d="m0 0h14l19 2 20 5 13 5 16 8 11 7 9 7 10 9 10 10 11 15 9 16 5 11 6 18 4 24v27l-3 19-5 17-7 17-9 16-10 13-11 12-11 10-16 11-17 9-19 7-18 4-8 1h-32l-18-3-20-6-21-10-12-8-10-8-10-9-11-12-9-13-8-14-8-19-4-14-3-19v-29l3-19 6-20 11-23 12-17 11-12 10-10 15-11 16-9 17-7 18-5 12-2z" fill="#2B2928"/>
<path transform="translate(1012,33)" d="m0 0h3l17 36 5 11v2l-22 11-20 12-17 12-11 9-14 12-17 17 2 4 13 12 6 5 3 1 2-4 14-14 22-18 13-9 20-12 18-9h2l18 39 4 9v2l-16 8-17 10-12 9-11 9-13 12-3 4 1 3 11 9 8 7-1 4-8 9-9 13-3 5h7l-2 18-5 36-1 2h-23l-2 16-1 16 12 7 9 10 5 11 2 10v15l-2 10-4 10-7 9-1 4 11 22 5 8v2l-22 14h-2l5 9 13 16 12 13 11 10 13 10 7 5-2 4-12 18-15 22h-4l-14-10-14-12-13-12-13-14-11-14-10-14-12 7-14 9 4 7 12 16 11 13 9 10 14 14 11 9 15 12 9 6-2 5-17 25-11 16-11-7-14-11-13-11-12-11-17-17-9-11-9-10-13-18-4-6-5 2-22 14-1 2h-830v-528h304l1 2-1 205-1 24-4-5-6-10-9-10-9-6-12-4-5-1h-56l-15 3-16 7-11 8-8 7-9 12-7 15-4 15v73l4 15 8 16 6 8 7 8 11 8 16 8 18 4h81l18-3 14-5 13-7 5-3 7 7 13 8 7 3v-40l1-361 1-1h556l-5 5-10 9-8 7-15 14-11 12 12 12 8 7 4 2 25-25 11-9 9-8 18-13 17-11 21-12zm-2 6-25 13-22 14-14 10-14 11-15 13-23 23-2 3-4-2-10-9-8-7-10-9 6-7 15-16 10-9 11-10v-1h-537l-1 1-1 308v94l-15-5-10-6-7-6-5 2-17 8-14 4-16 2h-76l-14-2-15-5-11-6-9-7-8-7-10-14-7-15-3-11-1-6v-72l4-16 8-17 11-14 12-10 14-8 15-5 11-2h56l13 3 12 6 12 11 2 3h2l1-207-1-1h-294v518h821l18-11 16-10 2 5 14 20 24 28 22 22 11 9 12 10 13 9 4-5 8-11 13-19v-3l-19-14-12-11-8-7-12-12-7-8-13-16-14-21 15-10 17-11 4 1 8 12 11 14 9 10 7 8 8 8 8 7 16 13 5 3 3-1 8-12 13-19 2-5-13-10-10-9-8-7-12-13-12-16-5-8v-2l22-14 1-3-13-25-2-1-11 7-15 6-15 3-10 1-147 1 3-21 4-31v-4h136l7-2 5-6v-10l-5-5-6-2-86-1-20-4-16-8-7-6-6-10-4-13v-19l4-13 5-9 9-10 14-9 15-6 13-3 8-1 138-1 12-18 8-10-2-4-11-10-7-6 2-4 11-12 8-7 15-12 17-11 10-6 8-4 1-4-16-34-1-3-5 1-21 11-15 10-12 9-13 11-10 9-10 10-3 4-5-2-15-14-11-9 2-5 22-22 11-9 15-12 15-10 15-9 21-11-1-5-15-33-2-3z" fill="#2C2A29"/>
<path transform="translate(2043,89)" d="m0 0h5v84l-1 283-2 1-12-5-11-8-2-2-4 1-16 8-13 4-14 2h-70l-16-3-12-5-10-6-10-9-9-10-8-16-4-15v-66l4-16 8-15 8-10 10-9 14-8 15-5 5-1h56l15 5 11 8 8 10 1 2 1-10 1-154 1-22 9-3zm-139 230-8 4-5 7-1 3v54l4 7 6 5 6 2h75l6-3 3-4v-55l-5-10-8-7-7-3z" fill="#2C2A29"/>
<path transform="translate(1156,212)" d="m0 0h14l19 2 20 5 13 5 16 8 11 7 9 7 10 9 10 10 11 15 9 16 5 11 6 18 4 24v27l-3 19-5 17-7 17-9 16-10 13-11 12-11 10-16 11-17 9-19 7-18 4-8 1h-32l-18-3-20-6-21-10-12-8-10-8-10-9-11-12-9-13-8-14-8-19-4-14-3-19v-29l3-19 6-20 11-23 12-17 11-12 10-10 15-11 16-9 17-7 18-5 12-2zm-9 35-21 5-16 7-11 6-14 11-10 10-11 15-8 16-4 10-4 17-1 9v19l3 18 5 16 8 16 10 14 11 12 14 11 16 9 16 6 14 3 7 1h24l21-4 20-8 13-8 10-8 9-8 11-14 8-14 5-11 5-17 2-15v-17l-3-20-5-15-8-16-9-13-11-12-9-8-14-9-17-8-19-5-5-1z" fill="#FEFEFE"/>
<path transform="translate(1578,262)" d="m0 0h56l1 29 7-10 7-7 13-8 9-3 6-1h51l16 3 12 5 11 7 10 9 7 8 8 14 5 16 1 9v124h-57l-1-124-4-8-8-5h-76l-8 3-5 5-3 6-1 5-1 118h-56z" fill="#2B2928"/>
<path transform="translate(1331,262)" d="m0 0h56l1 122 2 7 4 5 5 3 5 1h75l6-2 2-7 1-129h56l1 1v193l-2 1-14-7-10-9-4 2-14 9-8 3-12 2h-82l-15-3-12-5-12-7-9-8-10-13-7-15-3-12z" fill="#2C2A29"/>
<path transform="translate(1401,557)" d="m0 0 4 2 14 12 10 8 13 11v4l-12 13-7 8-13 13-8 7-13 11-19 14-17 11-21 12-22 11-23 9-24 8-29 7-25 4-22 2h-48l-29-3-18-3-1-2 10-52 17 2 15 2 14 1h32l29-3 22-4 23-6 23-8 18-8 16-8 19-11 17-12 14-11 10-9 8-7 10-10 7-8z" fill="#FEFE00"/>
<path transform="translate(1161)" d="m0 0h14l29 2 36 6 24 6 27 9 26 11 20 10 20 12 12 8 19 14 14 12 10 9 20 20-1 4-8 7-13 12-10 9-8 6-24-24-11-9-17-13-17-11-18-10-23-11-25-9-25-7-21-4-26-3-24-1-1-1v-53z" fill="#FEFE00"/>
<path transform="translate(1334,502)" d="m0 0 5 2 10 9 22 18 5 4-1 4-11 12-9 10-8 7-14 12-18 13-24 14-21 10-25 9-23 6-23 4-22 2h-28l-22-2-19-3 1-10 8-40 1-4 25 3h40l22-3 20-5 21-7 25-12 19-12 14-11 10-9 7-6 7-8z" fill="#FEFE00"/>
<path transform="translate(1160,87)" d="m0 0h23l25 3 24 5 26 8 19 8 16 8 18 10 17 12 11 9 14 12 14 14 1 4-13 12-10 9-13 12-5 2-7-8-8-8-11-9-15-11-15-9-15-8-23-9-26-7-20-3-27-2z" fill="#FEFE00"/>
<path transform="translate(485,302)" d="m0 0h71l10 4 8 7 5 6 3 8v60l-4 7-6 3h-89l-8-4-6-7-3-9v-55l3-9 4-5 8-5z" fill="#FEFE00"/>
<path transform="translate(206,302)" d="m0 0h73l10 4 9 8 6 12v62l-4 6-6 3h-88l-8-4-7-8-2-5v-62l5-8 7-6z" fill="#FEFE00"/>
<path transform="translate(1155,313)" d="m0 0h16l13 4 11 7 8 8 6 11 3 9 1 13-2 12-7 14-9 10-11 7-9 3-5 1h-14l-12-3-12-7-8-8-6-9-4-12-1-14 3-14 5-10 9-10 8-6 12-5z" fill="#2B2928"/>
<path transform="translate(1156,212)" d="m0 0h14l19 2 20 5 13 5 16 8 11 7 9 7 10 9 10 10 11 15 9 16 5 11 6 18 4 24v27l-3 19-5 17-7 17-9 16-10 13-11 12-11 10-16 11-17 9-19 7-18 4-8 1h-32l-18-3-20-6-21-10-12-8-10-8-10-9-11-12-9-13-8-14-8-19-4-14-3-19v-29l3-19 6-20 11-23 12-17 11-12 10-10 15-11 16-9 17-7 18-5 12-2zm-7 6-18 3-20 6-21 10-12 8-11 9-16 16-10 14-9 16-6 15-4 13-3 17-1 21 2 21 5 20 8 20 10 17 13 16 12 12 16 12 18 10 22 8 20 4 10 1h18l21-3 15-4 15-6 14-7 13-9 11-9 11-11 10-13 8-13 8-17 5-15 3-14 1-7v-33l-3-17-6-20-8-16-7-12-10-13-17-17-15-11-21-11-21-7-22-4z" fill="#2F2D2C"/>
<path transform="translate(482,240)" d="m0 0h53l14 3 14 7 10 9 3 4v2h2v-17l1-4h66v126l-1 89-8-1-16-8-9-7-16 8-15 5-9 2-9 1h-81l-16-3-12-5-11-6-10-8-8-8-9-13-7-16-3-12-1-9v-58l3-19 6-15 9-14 11-12 13-9 14-7 15-4zm0 5-15 3-13 5-14 9-12 11-10 15-6 15-3 17v59l2 14 6 16 7 12 11 12 11 9 17 8 10 3 7 1h84l20-4 16-7 10-6 4 2 10 8 12 6h3l1-62v-142h-57l-2 32-8-14-9-10-11-7-12-4-6-1z" fill="#2E2C2B"/>
<path transform="translate(1401,557)" d="m0 0 4 2 14 12 10 8 13 11v4l-12 13-7 8-13 13-8 7-13 11-19 14-17 11-21 12-22 11-23 9-24 8-29 7-25 4-22 2h-48l-29-3-18-3-1-2 10-52 17 2 15 2 14 1h32l29-3 22-4 23-6 23-8 18-8 16-8 19-11 17-12 14-11 10-9 8-7 10-10 7-8zm0 7-9 10-7 8-8 8-8 7-13 11-18 13-25 15-16 8-20 9-30 10-27 6-19 3-26 2h-25l-25-2-13-2h-7l-8 40 1 4 28 4 10 1h54l33-4 28-6 24-7 22-8 18-8 22-11 23-14 14-10 13-10 14-12 13-12 12-12 7-8 3-4-2-4-10-8-13-11-8-6z" fill="#2F2D2C"/>
<path transform="translate(1155,313)" d="m0 0h16l13 4 11 7 8 8 6 11 3 9 1 13-2 12-7 14-9 10-11 7-9 3-5 1h-14l-12-3-12-7-8-8-6-9-4-12-1-14 3-14 5-10 9-10 8-6 12-5zm3 12-13 4-9 7-6 8-4 11v15l4 11 7 9 9 6 7 3 6 1h9l10-3 10-6 8-10 4-11v-15l-4-11-7-9-10-7-11-3z" fill="#FEFEFE"/>
<path transform="translate(1161)" d="m0 0h14l29 2 36 6 24 6 27 9 26 11 20 10 20 12 12 8 19 14 14 12 10 9 20 20-1 4-8 7-13 12-10 9-8 6-24-24-11-9-17-13-17-11-18-10-23-11-25-9-25-7-21-4-26-3-24-1-1-1v-53zm5 5-1 1v43l1 1 30 2 32 5 30 8 25 9 29 14 22 13 14 10 13 10 10 9 8 7 13 13 4-2 8-8 8-7 13-12-2-4-21-21-22-18-18-13-18-11-18-10-23-11-24-9-23-7-26-6-26-4-26-2z" fill="#32302F"/>
<path transform="translate(1334,502)" d="m0 0 5 2 10 9 22 18 5 4-1 4-11 12-9 10-8 7-14 12-18 13-24 14-21 10-25 9-23 6-23 4-22 2h-28l-22-2-19-3 1-10 8-40 1-4 25 3h40l22-3 20-5 21-7 25-12 19-12 14-11 10-9 7-6 7-8zm1 7-10 10v2l-4 2-10 10-17 13-15 10-23 12-21 8-21 6-22 4-10 1h-38l-16-2h-6l-6 28-2 10v6l21 3 12 1h32l27-3 24-5 17-5 22-8 23-11 20-12 18-13 14-12 15-14 7-8 3-4-2-4-14-12-11-9-5-4z" fill="#302E2D"/>
<path transform="translate(857,319)" d="m0 0h114l-1 10-3 20-10-2-15-2-83-1-7-3-3-4-1-9 3-6z" fill="#FEFE00"/>
<path transform="translate(1160,87)" d="m0 0h23l25 3 24 5 26 8 19 8 16 8 18 10 17 12 11 9 14 12 14 14 1 4-13 12-10 9-13 12-5 2-7-8-8-8-11-9-15-11-15-9-15-8-23-9-26-7-20-3-27-2zm5 5v44l21 2 26 4 24 7 16 6 19 9 18 11 16 12 15 13 8 8 4-2 16-15 8-7 5-5-2-4-14-14-11-9-17-13-21-13-15-8-24-10-18-6-25-6-29-4z" fill="#343231"/>
<path transform="translate(1159,336)" d="m0 0h8l10 4 7 6 4 7 1 4v10l-3 8-5 7-6 4-5 2h-14l-10-5-7-9-2-6v-11l3-8 7-8 8-4z" fill="#FEFEFE"/>
<path transform="translate(485,302)" d="m0 0h71l10 4 8 7 5 6 3 8v60l-4 7-6 3h-89l-8-4-6-7-3-9v-55l3-9 4-5 8-5zm0 5-8 4-5 7-1 3v57l4 8 6 5 3 1h87l4-2 2-4v-58l-4-9-8-8-9-4z" fill="#2C2A29"/>
<path transform="translate(206,302)" d="m0 0h73l10 4 9 8 6 12v62l-4 6-6 3h-88l-8-4-7-8-2-5v-62l5-8 7-6zm0 5-8 5-4 7-1 4v52l3 9 5 5 6 3h86l5-3 2-6v-52l-4-11-7-8-10-5z" fill="#2C2A29"/>
<path transform="translate(692,332)" d="m0 0h62v61h-62zm5 5v51h53v-51z" fill="#2B2928"/>
<path transform="translate(1160,226)" d="m0 0h6l3 4-1 5-2 2h-6l-3-4 1-5z" fill="#2B2928"/>
<path transform="translate(1161,488)" d="m0 0 6 1 2 3-1 5-2 2h-6l-3-3 1-6z" fill="#2B2928"/>
<path transform="translate(1292,357)" d="m0 0h5l3 3v5l-3 3h-6l-2-2v-7z" fill="#2B2928"/>
<path transform="translate(1029,357)" d="m0 0 7 1 1 2v6l-2 2h-6l-3-3v-5z" fill="#2B2928"/>
</svg>
